<?xml version="1.0" encoding="UTF-8" standalone="no"?><!DOCTYPE svg PUBLIC "-//W3C//DTD SVG 1.1//EN" "http://www.w3.org/Graphics/SVG/1.1/DTD/svg11.dtd"><svg width="100%" height="100%" viewBox="0 0 64 30" version="1.1" xmlns="http://www.w3.org/2000/svg" xmlns:xlink="http://www.w3.org/1999/xlink" xml:space="preserve" xmlns:serif="http://www.serif.com/" style="fill-rule:evenodd;clip-rule:evenodd;stroke-linejoin:round;stroke-miterlimit:2;"><g id="surface1"><g><clipPath id="_clip1"><rect x="0.281" y="0.336" width="25.719" height="29.469"/></clipPath><g clip-path="url(#_clip1)"><path d="M16.051,6.008c-5.778,-0 -9.321,4.512 -9.321,9.047c0,5.476 4.469,9.05 9.36,9.05c3.25,0 6.328,-1.425 8.933,-3.746l0,6.782c-2.738,1.632 -6.488,2.648 -9.398,2.648c-8.352,0 -15.34,-6.777 -15.34,-14.734c0,-8.414 7.043,-14.719 15.379,-14.719c3.215,-0 6.965,0.961 9.398,2.187l0,6.649c-3.066,-2.031 -6.183,-3.164 -9.011,-3.164Z" style="fill:#e31936;fill-rule:nonzero;"/></g></g><g><clipPath id="_clip2"><rect x="27" y="0.336" width="26" height="29.469"/></clipPath><g clip-path="url(#_clip2)"><path d="M42.77,29.789c-8.391,0 -15.473,-6.527 -15.473,-14.734c-0,-8.282 7.043,-14.719 15.855,-14.719c3.2,-0 7.164,0.844 9.61,1.976l-0,6.598c-2.778,-1.598 -6.356,-2.902 -9.489,-2.902c-5.777,-0 -9.527,4.512 -9.527,9.047c0,5.343 4.426,9.222 9.617,9.222c1.098,0 2.145,-0.093 3.492,-0.593l0,-5.305l-4.718,-0l-0,-5.59l10.797,0l-0,14.891c-3.079,1.386 -6.528,2.109 -10.164,2.109Z" style="fill:#e31936;fill-rule:nonzero;"/></g></g><g><rect x="57.652" y="0.914" width="6.063" height="28.281" style="fill:#e31936;fill-rule:nonzero;"/></g></g></svg>